<svg height="512" viewBox="0 0 58 58" width="512" xmlns="http://www.w3.org/2000/svg"><g id="Page-1" fill="none" fill-rule="evenodd"><g id="011---Sunny-and-Clouds" fill-rule="nonzero" transform="translate(-1)"><path id="Shape" d="m46.465 29.9c-.218392.2167295-.3048788.5333398-.227.831l1.522 6.129c.1140977.4564789-.1497906.9222418-.6 1.059l-6.079 1.74c-.2920723.0876163-.5186635.319117-.6.613l-1.581 5.869c-.1237772.4574187-.5895258.7328758-1.05.621l-6.123-1.522c-.2976624-.0783052-.6144855.0082397-.831.227l-4.277 4.277c-.3438232.3409-.8981768.3409-1.242 0l-4.277-4.277c-.2164065-.2189452-.5333366-.3055194-.831-.227l-6.122 1.522c-.4605582.112441-.9266777-.1632353-1.05-.621l-1.574-5.869c-.0815062-.2937853-.3080291-.5252161-.6-.613l-6.061-1.74c-.45584202-.1346301-.72178109-.6075584-.6-1.067l1.575-5.861c.07621081-.2962355-.00668908-.6108009-.219-.831l-4.399-4.56c-.32407737-.33746-.32407737-.87054 0-1.208l4.391-4.553c.21248913-.2196902.29544101-.534074.219-.83l-1.575-5.861c-.12178109-.4594416.14415798-.9323699.6-1.067l6.061-1.74c.2919709-.0877839.5184938-.3192147.6-.613l1.585-5.869c.1233223-.45776465.5894418-.73344103 1.05-.621l6.119 1.522c.2976634.07851935.6145935-.00805482.831-.227l4.277-4.277c.3438232-.34090001.8981768-.34090001 1.242 0l4.281 4.277c.2165145.21876028.5333376.30530521.831.227l6.132-1.522c.4561522-.11349038.9212533.15027204 1.058.6l1.741 6.079c.086585.2923343.3180086.5192202.612.6l5.865 1.583c.4579736.1224111.7339557.5886031.621 1.049l-1.522 6.123c-.0778788.2976602.008608.6142705.227.831l4.277 4.277c.3419928.3433725.3419928.8986275 0 1.242z" fill="#f29c1f"/><circle id="Oval" cx="25.998" cy="25" fill="#e57e25" r="19"/><circle id="Oval" cx="25.998" cy="25" fill="#f0c419" r="17"/><ellipse id="Oval" cx="18.466" cy="16.81" fill="#f3d55b" rx="7.41" ry="5.601" transform="matrix(.746 -.666 .666 .746 -6.504 16.554)"/><path id="Shape" d="m26 25c-2.209139 0-4-1.790861-4-4 0-.5522847.4477153-1 1-1s1 .4477153 1 1c0 1.1045695.8954305 2 2 2s2-.8954305 2-2c0-.5522847.4477153-1 1-1s1 .4477153 1 1c0 2.209139-1.790861 4-4 4z" fill="#3f5c6c"/><path id="Shape" d="m59 49.53c.0343766 4.6413365-3.6986869 8.4325893-8.34 8.47h-19.46c-5.3009653-.0868255-9.6827757-4.158066-10.1583628-9.438368-.475587-5.280302 3.1082257-10.0689916 8.3083628-11.101632v-.03c-.008665-.0461321-.0120202-.0931046-.01-.14-.0026414-.6368061.0508995-1.2726038.16-1.9.9055893-5.7651905 6.1163053-9.8477557 11.9307189-9.3476477s10.251458 5.4124941 10.1592811 11.2476477c-.001471 1.2762137-.2143529 2.5433679-.63 3.75 0 .01-.01.02-.01.03 4.5253035.1885726 8.0862789 3.9309146 8.05 8.46z" fill="#ecf0f1"/><path id="Shape" d="m34.812 33.86c-.3787721 0-.7250352-.2140024-.8944272-.5527864s-.132836-.744196.0944272-1.0472136c1.5099535-2.0502373 3.9047415-3.2604386 6.451-3.26.5522847 0 1 .4477153 1 1s-.4477153 1-1 1c-1.9154822.0025758-3.7156075.9158173-4.849 2.46-.1892763.2523697-.4865391.4006305-.802.4z" fill="#fff"/><path id="Shape" d="m36.45 37.83c-.1742459.3304836-.5163995.5380824-.89.54-.1601786.0029178-.3184696-.0349344-.46-.11-1.7737758-.8997699-3.7941756-1.1914103-5.75-.83-.008665-.0461321-.0120202-.0931046-.01-.14-.0026414-.6368061.0508995-1.2726038.16-1.9 2.2303245-.3051948 4.5007304.0749499 6.51 1.09.4929463.2524417.6895211.8555689.44 1.35z" fill="#d1d4d1"/><path id="Shape" d="m51.45 39.07c-.1053643.6697416-.2693272 1.3289392-.49 1.97-1.2407865-.0549007-2.4745152.2139005-3.58.78-.1397016.0703603-.2935934.1079783-.45.11-.3778306.0033632-.7240094-.2105675-.89-.55-.120978-.2346619-.1436313-.5078119-.0629629-.7591971.0806683-.2513851.2580305-.4603511.4929629-.5808029 1.5369034-.7818752 3.2619982-1.1178876 4.98-.97z" fill="#d1d4d1"/><g fill="#35495e"><circle id="Oval" cx="19" cy="17" r="3"/><circle id="Oval" cx="33" cy="17" r="3"/><path id="Shape" d="m30 47c-.5522847 0-1-.4477153-1-1s-.4477153-1-1-1-1 .4477153-1 1-.4477153 1-1 1-1-.4477153-1-1c0-1.6568542 1.3431458-3 3-3s3 1.3431458 3 3c0 .5522847-.4477153 1-1 1z"/><path id="Shape" d="m40 47c-.5522847 0-1-.4477153-1-1s-.4477153-1-1-1-1 .4477153-1 1-.4477153 1-1 1-1-.4477153-1-1c0-1.6568542 1.3431458-3 3-3s3 1.3431458 3 3c0 .5522847-.4477153 1-1 1z"/></g><path id="Shape" d="m33 53c-1.6568542 0-3-1.3431458-3-3 0-.5522847.4477153-1 1-1s1 .4477153 1 1 .4477153 1 1 1 1-.4477153 1-1 .4477153-1 1-1 1 .4477153 1 1c0 1.6568542-1.3431458 3-3 3z" fill="#547580"/><ellipse id="Oval" cx="17.5" cy="22" fill="#fb7b76" rx="2.5" ry="1"/><ellipse id="Oval" cx="34.5" cy="22" fill="#fb7b76" rx="2.5" ry="1"/><circle id="Oval" cx="18" cy="16" fill="#ecf0f1" r="1"/><circle id="Oval" cx="32" cy="16" fill="#ecf0f1" r="1"/></g></g></svg>