<svg height="512" viewBox="0 0 59 59" width="512" xmlns="http://www.w3.org/2000/svg"><g id="Page-1" fill="none" fill-rule="evenodd"><g id="025---Cresent-Moon" fill-rule="nonzero" transform="translate(-1)"><path id="Shape" d="m49.723 29.209c-2.0271397 13.2864015-14.3747924 22.4628409-27.6812703 20.5719668-13.30647791-1.8908741-22.60897434-14.1438381-20.85456444-27.4689949 1.75440989-13.32515692 13.91139844-22.75273334 27.25383474-21.1349719.0491009.00602242.0973909.01742423.144.034h.025c.3174936.10533355.54267.38842791.5738734.72147998.0312033.33305208-.1374705.65304587-.4298734.81552002-5.3727985 2.93657686-8.2945076 8.9552775-7.2783298 14.9933094 1.0161777 6.038032 5.7469884 10.7688427 11.7850204 11.7850204 6.0380319 1.0161778 12.0567325-1.9055313 14.9933094-7.2783298.1636223-.2907889.483038-.458066.8152454-.4269419.3322073.0311242.614993.254821.7217546.5709419v.025c.0165758.0466091.0279776.0948991.034.144.2650991 2.2105046.2307897 4.4466688-.102 6.648z" fill="#f0c419"/><path id="Shape" d="m49.79 22.391v.025c-1.4502136 9.4240996-9.7957403 16.2227461-19.3184222 15.7376677-9.5226819-.4850785-17.134167-8.0965636-17.6192455-17.6192455-.4850784-9.5226819 6.3135681-17.86820855 15.7376677-19.3184222h.025c.3174936.10533355.54267.38842791.5738734.72147998.0312033.33305208-.1374705.65304587-.4298734.81552002-5.3727985 2.93657686-8.2945076 8.9552775-7.2783298 14.9933094 1.0161777 6.038032 5.7469884 10.7688427 11.7850204 11.7850204 6.0380319 1.0161778 12.0567325-1.9055313 14.9933094-7.2783298.163901-.2873278.4803861-.4525981.8098387-.4229021.3294525.0296959.6112825.2488966.7211613.5609021z" fill="#f3d55b"/><path id="Shape" d="m21.3 16.13c-.2871338.0513743-.5783076.0768102-.87.076-2.2503856.003268-4.2335086-1.4775207-4.8696303-3.6361302s.2270715-4.47818057 2.119602-5.69579051c1.8925306-1.21760995 4.3612494-1.04171324 6.0620283.43192071-1.7596664 2.59393655-2.61772 5.6944545-2.442 8.824z" fill="#f29c1f"/><path id="Shape" d="m47.628 36.043c-2.249824 4.6760723-5.915215 8.5248029-10.476 11-2.860716-2.9258191-2.8913789-7.5913757-.0693664-10.5545428 2.8220125-2.963167 7.4835128-3.160078 10.5453664-.4454572z" fill="#f29c1f"/><path id="Shape" d="m21 50.53c-.0343766 4.6413365 3.6986869 8.4325893 8.34 8.47h19.46c5.3111673-.0311129 9.7176829-4.1163654 10.15-9.41.03-.31.05-.62.05-.94.0364889-4.9460485-3.4479312-9.2197107-8.3-10.18-.0153542-.0080837-.0327178-.0115564-.05-.01 0-.02.01-.03 0-.05.0082848-.0394323.0116438-.0797403.01-.12-.0027505-.58232-.0461896-1.1637361-.13-1.74-.01-.04-.01-.08-.02-.12-.8555967-5.4047078-5.4980972-9.3954808-10.97-9.43-2.6857564-.0024593-5.2792906.9794549-7.29 2.76-2.4468947 2.158973-3.845967 5.2668079-3.84 8.53.0006948.5960558.0475011 1.1911647.14 1.78.01.04.01.09.02.13.1067794.6292632.2673687 1.2482011.48 1.85v.02c-4.537007.1626777-8.1127229 3.9205108-8.05 8.46z" fill="#ecf0f1"/><path id="Shape" d="m45.188 34.86c.3787721 0 .7250352-.2140024.8944272-.5527864s.132836-.744196-.0944272-1.0472136c-1.5099535-2.0502373-3.9047415-3.2604386-6.451-3.26-.5522847 0-1 .4477153-1 1s.4477153 1 1 1c1.9154822.0025758 3.7156075.9158173 4.849 2.46.1892763.2523697.4865391.4006305.802.4z" fill="#fff"/><path id="Shape" d="m43.34 38.86c.1734743.3433225.5253396.559855.91.56.1491349.0003415.2963195-.0338875.43-.1 1.857801-.8819447 3.9388067-1.181721 5.97-.86 0-.02.01-.03 0-.05.0082848-.0394323.0116438-.0797403.01-.12-.0027505-.58232-.0461896-1.1637361-.13-1.74-.01-.04-.01-.08-.02-.12-2.2915081-.2793049-4.6151977.0987282-6.7 1.09-.2408.1145232-.4258895.3204738-.5141435.5720915-.0882539.2516176-.0723624.5280615.0441435.7679085z" fill="#d1d4d1"/><path id="Shape" d="m28.55 40.07c.01.04.01.09.02.13.1067794.6292632.2673687 1.2482011.48 1.85 1.2476267.0252453 2.4779247.2971344 3.62.8.1253777.0582167.26177.088905.4.09.478667.0088487.8964554-.3228028.9964341-.7909958s-.1459034-.9415658-.5864341-1.1290042c-1.4806463-.6525264-3.0819571-.9864167-4.7-.98-.0776758-.0005314-.1550594.0095621-.23.03z" fill="#d1d4d1"/><circle id="Oval" cx="9" cy="22" fill="#f29c1f" r="3"/><path id="Shape" d="m23 36c-1.6568542 0-3-1.3431458-3-3 0-.5522847.4477153-1 1-1s1 .4477153 1 1 .4477153 1 1 1 1-.4477153 1-1 .4477153-1 1-1 1 .4477153 1 1c0 1.6568542-1.3431458 3-3 3z" fill="#3f5c6c"/><path id="Shape" d="m11 36c-1.65685425 0-3-1.3431458-3-3 0-.5522847.44771525-1 1-1s1 .4477153 1 1 .4477153 1 1 1 1-.4477153 1-1 .4477153-1 1-1 1 .4477153 1 1c0 1.6568542-1.3431458 3-3 3z" fill="#3f5c6c"/><circle id="Oval" cx="18" cy="27" fill="#f29c1f" r="2"/><path id="Shape" d="m52 49c-1.6568542 0-3-1.3431458-3-3 0-.5522847.4477153-1 1-1s1 .4477153 1 1 .4477153 1 1 1 1-.4477153 1-1 .4477153-1 1-1 1 .4477153 1 1c0 1.6568542-1.3431458 3-3 3z" fill="#3f5c6c"/><path id="Shape" d="m42 49c-1.6568542 0-3-1.3431458-3-3 0-.5522847.4477153-1 1-1s1 .4477153 1 1 .4477153 1 1 1 1-.4477153 1-1 .4477153-1 1-1 1 .4477153 1 1c0 1.6568542-1.3431458 3-3 3z" fill="#3f5c6c"/><path id="Shape" d="m47 54c-1.6568542 0-3-1.3431458-3-3 0-.5522847.4477153-1 1-1s1 .4477153 1 1 .4477153 1 1 1 1-.4477153 1-1 .4477153-1 1-1 1 .4477153 1 1c0 1.6568542-1.3431458 3-3 3z" fill="#35495e"/><path id="Shape" d="m20 38v1c-.0082058 1.6534434-1.3465566 2.9917942-3 3-.684767-.0022266-1.3481651-.2386504-1.88-.67-.7100952-.564451-1.1227397-1.4228988-1.12-2.33l-.0000136-1z" fill="#802d40"/><g fill="#f0c419"><path id="Shape" d="m33 11c-.5522847 0-1-.4477153-1-1v-1c0-.55228475.4477153-1 1-1s1 .44771525 1 1v1c0 .5522847-.4477153 1-1 1z"/><path id="Shape" d="m31 13h-1c-.5522847 0-1-.4477153-1-1s.4477153-1 1-1h1c.5522847 0 1 .4477153 1 1s-.4477153 1-1 1z"/><path id="Shape" d="m33 16c-.5522847 0-1-.4477153-1-1v-1c0-.5522847.4477153-1 1-1s1 .4477153 1 1v1c0 .5522847-.4477153 1-1 1z"/><path id="Shape" d="m36 13h-1c-.5522847 0-1-.4477153-1-1s.4477153-1 1-1h1c.5522847 0 1 .4477153 1 1s-.4477153 1-1 1z"/><path id="Shape" d="m48 3c-.5522847 0-1-.44771525-1-1v-1c0-.55228475.4477153-1 1-1s1 .44771525 1 1v1c0 .55228475-.4477153 1-1 1z"/><path id="Shape" d="m46 5h-1c-.5522847 0-1-.44771525-1-1s.4477153-1 1-1h1c.5522847 0 1 .44771525 1 1s-.4477153 1-1 1z"/><path id="Shape" d="m48 8c-.5522847 0-1-.44771525-1-1v-1c0-.55228475.4477153-1 1-1s1 .44771525 1 1v1c0 .55228475-.4477153 1-1 1z"/><path id="Shape" d="m51 5h-1c-.5522847 0-1-.44771525-1-1s.4477153-1 1-1h1c.5522847 0 1 .44771525 1 1s-.4477153 1-1 1z"/><path id="Shape" d="m56 15c-.5522847 0-1-.4477153-1-1v-1c0-.5522847.4477153-1 1-1s1 .4477153 1 1v1c0 .5522847-.4477153 1-1 1z"/><path id="Shape" d="m54 17h-1c-.5522847 0-1-.4477153-1-1s.4477153-1 1-1h1c.5522847 0 1 .4477153 1 1s-.4477153 1-1 1z"/><path id="Shape" d="m56 20c-.5522847 0-1-.4477153-1-1v-1c0-.5522847.4477153-1 1-1s1 .4477153 1 1v1c0 .5522847-.4477153 1-1 1z"/><path id="Shape" d="m59 17h-1c-.5522847 0-1-.4477153-1-1s.4477153-1 1-1h1c.5522847 0 1 .4477153 1 1s-.4477153 1-1 1z"/></g><path id="Shape" d="m18.88 41.33c-.5299996.4346058-1.1945952.6714564-1.88.67-.684767-.0022266-1.3481651-.2386504-1.88-.67.2816422-.7967523 1.034934-1.329443 1.88-1.329443s1.5983578.5326907 1.88 1.329443z" fill="#ff5364"/></g></g></svg>