<svg height="512" viewBox="0 0 59 59" width="512" xmlns="http://www.w3.org/2000/svg"><g id="Page-1" fill="none" fill-rule="evenodd"><g id="028---Nightime-Fog" fill-rule="nonzero" transform="translate(-1)"><path id="Shape" d="m50.716 29.784c-2.0703536 13.5537989-14.667734 22.9135199-28.2422548 20.983698-13.57452079-1.9298219-23.06425136-14.4295572-21.27516833-28.0233429 1.78908303-13.59378573 14.18983163-23.21250724 27.80142313-21.5643551.0497002.00683214.0986041.0185557.146.035h.026c.3237938.1078496.5533237.39676781.5851591.73656253.0318355.33979472-.1400334.66632008-.4381591.83243747-5.4798532 2.99798686-8.458668 9.1385661-7.421176 15.2981381 1.0374919 6.1595719 5.863466 10.985546 12.0230379 12.0230379 6.159572 1.037492 12.3001512-1.9413228 15.2981381-7.421176.1672596-.2965178.4932096-.4669968.832164-.4352401s.6275654.2598141.736836.5822401v.026c.0152358.046528.025952.094416.032.143.2704098 2.255729.2354279 4.53762-.104 6.784z" fill="#f0c419"/><path id="Shape" d="m50.785 22.827v.026c-1.4830092 9.6139645-9.9985226 16.5476568-19.7135397 16.0516004-9.7150171-.4960563-17.4800044-8.2610436-17.9760607-17.9760607-.4960564-9.7150171 6.4376359-18.23053052 16.0516004-19.7135397h.026c.3237938.1078496.5533237.39676781.5851591.73656253.0318355.33979472-.1400334.66632008-.4381591.83243747-5.4798532 2.99798686-8.458668 9.1385661-7.421176 15.2981381 1.0374919 6.1595719 5.863466 10.985546 12.0230379 12.0230379 6.159572 1.037492 12.3001512-1.9413228 15.2981381-7.421176.167448-.2942048.491441-.4633417.8285559-.4325382.3371148.0308035.6250891.2558581.7364441.5755382z" fill="#f3d55b"/><path id="Shape" d="m59 44c0 1.6568542-1.3431458 3-3 3h-12c1.6568542.0000001 2.9999999 1.3431458 2.9999999 3s-1.3431457 2.9999999-2.9999999 3h8c1.6568542 0 3 1.3431458 3 3s-1.3431458 3-3 3h-18c-1.6568542 0-3-1.3431458-3-3s1.3431458-3 3-3h-6c-1.6568542 0-3-1.3431458-3-3s1.3431458-3 3-3h-4c-1.6568542 0-3-1.3431458-3-3s1.3431458-3 3-3h6c-1.6568542 0-3-1.3431458-3-3s1.3431458-3 3-3h5c-1.6568542 0-3-1.3431458-3-3s1.3431458-3 3-3h14c1.6568542 0 3 1.3431458 3 3s-1.3431458 3-3 3h4c1.6568542 0 3 1.3431458 3 3s-1.3431458 3-3 3h3c.7956495 0 1.5587112.3160705 2.1213203.8786797.5626092.5626091.8786797 1.3256708.8786797 2.1213203z" fill="#7f8c8d"/><path id="Shape" d="m53 44c0 1.6568542-1.3431458 3-3 3h-12c1.6568542.0000001 2.9999999 1.3431458 2.9999999 3s-1.3431457 2.9999999-2.9999999 3h8c1.6568542 0 3 1.3431458 3 3s-1.3431458 3-3 3h-12c-1.6568542 0-3-1.3431458-3-3s1.3431458-3 3-3h-6c-1.6568542 0-3-1.3431458-3-3s1.3431458-3 3-3h-4c-1.6568542 0-3-1.3431458-3-3s1.3431458-3 3-3h6c-1.6568542 0-3-1.3431458-3-3s1.3431458-3 3-3h5c-1.6568542 0-3-1.3431458-3-3s1.3431458-3 3-3h8c1.6568542 0 3 1.3431458 3 3s-1.3431458 3-3 3h4c1.6568542 0 3 1.3431458 3 3s-1.3431458 3-3 3h3c.7956495 0 1.5587112.3160705 2.1213203.8786797.5626092.5626091.8786797 1.3256708.8786797 2.1213203z" fill="#7f8c8d"/><path id="Shape" d="m49 56c0 1.6568542-1.3431458 3-3 3h-5c-1.6568542 0-3-1.3431458-3-3s1.3431458-3 3-3h5c1.6568542 0 3 1.3431458 3 3z" fill="#95a5a5"/><path id="Shape" d="m53 44c0 1.6568542-1.3431458 3-3 3h-12c1.6568542.0000001 2.9999999 1.3431458 2.9999999 3s-1.3431457 2.9999999-2.9999999 3h-3c-1.6568542 0-3-1.3431458-3-3s1.3431458-3 3-3h-4c-1.6568542 0-3-1.3431458-3-3s1.3431458-3 3-3h6c-1.6568542 0-3-1.3431458-3-3s1.3431458-3 3-3h5c-1.6568542 0-3-1.3431458-3-3s1.3431458-3 3-3h1c1.6568542 0 3 1.3431458 3 3s-1.3431458 3-3 3h4c1.6568542 0 3 1.3431458 3 3s-1.3431458 3-3 3h3c.7956495 0 1.5587112.3160705 2.1213203.8786797.5626092.5626091.8786797 1.3256708.8786797 2.1213203z" fill="#95a5a5"/><path id="Shape" d="m21.716 16.439c-.2930675.0525357-.5902616.0786406-.888.078-2.2950968.0010582-4.316488-1.5102252-4.9647459-3.7118683-.6482578-2.2016431.2316298-4.56718702 2.1610949-5.81002044s4.4471323-1.06576891 6.183651.43488874c-1.7964515 2.6483213-2.6721005 5.8139402-2.492 9.009z" fill="#f29c1f"/><circle id="Oval" cx="9.163" cy="22.428" fill="#f29c1f" r="3.061"/><circle id="Oval" cx="18.347" cy="27.53" fill="#f29c1f" r="2.041"/><path id="Shape" d="m22 34c-1.6568542 0-3-1.3431458-3-3 0-.5522847.4477153-1 1-1s1 .4477153 1 1 .4477153 1 1 1 1-.4477153 1-1 .4477153-1 1-1 1 .4477153 1 1c0 1.6568542-1.3431458 3-3 3z" fill="#35495e"/><path id="Shape" d="m10 34c-1.65685425 0-3-1.3431458-3-3 0-.5522847.44771525-1 1-1s1 .4477153 1 1 .44771525 1 1 1c.5522847 0 1-.4477153 1-1s.4477153-1 1-1 1 .4477153 1 1c0 1.6568542-1.3431458 3-3 3z" fill="#35495e"/><path id="Shape" d="m20 39c-.374795.0003926-.718344-.2088249-.89-.542-.6969304-1.0124057-1.8860043-1.5698558-3.11-1.458-1.2253027-.1134698-2.4160421.4451676-3.112 1.46-.2601504.4817002-.856967.6680667-1.345.42-.4852003-.2473749-.6806084-.8393989-.438-1.327 1.0275535-1.6976213 2.9148074-2.6819235 4.895-2.553 1.9821785-.1319961 3.8724064.8528512 4.9 2.553.1553431.3108588.1381628.6800764-.0453763.9751664-.183539.2950901-.5071168.4737357-.8546237.4718336z" fill="#2c3e50"/><g fill="#f0c419"><path id="Shape" d="m35 14c-.5522847 0-1-.4477153-1-1v-1c0-.5522847.4477153-1 1-1s1 .4477153 1 1v1c0 .5522847-.4477153 1-1 1z"/><path id="Shape" d="m33 16h-1c-.5522847 0-1-.4477153-1-1s.4477153-1 1-1h1c.5522847 0 1 .4477153 1 1s-.4477153 1-1 1z"/><path id="Shape" d="m35 19c-.5522847 0-1-.4477153-1-1v-1c0-.5522847.4477153-1 1-1s1 .4477153 1 1v1c0 .5522847-.4477153 1-1 1z"/><path id="Shape" d="m38 16h-1c-.5522847 0-1-.4477153-1-1s.4477153-1 1-1h1c.5522847 0 1 .4477153 1 1s-.4477153 1-1 1z"/><path id="Shape" d="m48 3c-.5522847 0-1-.44771525-1-1v-1c0-.55228475.4477153-1 1-1s1 .44771525 1 1v1c0 .55228475-.4477153 1-1 1z"/><path id="Shape" d="m46 5h-1c-.5522847 0-1-.44771525-1-1s.4477153-1 1-1h1c.5522847 0 1 .44771525 1 1s-.4477153 1-1 1z"/><path id="Shape" d="m48 8c-.5522847 0-1-.44771525-1-1v-1c0-.55228475.4477153-1 1-1s1 .44771525 1 1v1c0 .55228475-.4477153 1-1 1z"/><path id="Shape" d="m51 5h-1c-.5522847 0-1-.44771525-1-1s.4477153-1 1-1h1c.5522847 0 1 .44771525 1 1s-.4477153 1-1 1z"/><path id="Shape" d="m56 15c-.5522847 0-1-.4477153-1-1v-1c0-.5522847.4477153-1 1-1s1 .4477153 1 1v1c0 .5522847-.4477153 1-1 1z"/><path id="Shape" d="m54 17h-1c-.5522847 0-1-.4477153-1-1s.4477153-1 1-1h1c.5522847 0 1 .4477153 1 1s-.4477153 1-1 1z"/><path id="Shape" d="m56 20c-.5522847 0-1-.4477153-1-1v-1c0-.5522847.4477153-1 1-1s1 .4477153 1 1v1c0 .5522847-.4477153 1-1 1z"/><path id="Shape" d="m59 17h-1c-.5522847 0-1-.4477153-1-1s.4477153-1 1-1h1c.5522847 0 1 .4477153 1 1s-.4477153 1-1 1z"/></g></g></g></svg>