<svg height="512" viewBox="0 0 58 58" width="512" xmlns="http://www.w3.org/2000/svg"><g id="Page-1" fill="none" fill-rule="evenodd"><g id="019---Sunny-and-Fog" fill-rule="nonzero" transform="translate(-1)"><path id="Shape" d="m46.465 29.9c-.218392.2167295-.3048788.5333398-.227.831l1.522 6.129c.1140977.4564789-.1497906.9222418-.6 1.059l-6.079 1.74c-.2920723.0876163-.5186635.319117-.6.613l-1.581 5.869c-.1237772.4574187-.5895258.7328758-1.05.621l-6.123-1.522c-.2976624-.0783052-.6144855.0082397-.831.227l-4.277 4.277c-.3438232.3409-.8981768.3409-1.242 0l-4.277-4.277c-.2164065-.2189452-.5333366-.3055194-.831-.227l-6.122 1.522c-.4605582.112441-.9266777-.1632353-1.05-.621l-1.574-5.869c-.0815062-.2937853-.3080291-.5252161-.6-.613l-6.061-1.74c-.45584202-.1346301-.72178109-.6075584-.6-1.067l1.575-5.861c.07621081-.2962355-.00668908-.6108009-.219-.831l-4.399-4.56c-.32407737-.33746-.32407737-.87054 0-1.208l4.391-4.553c.21248913-.2196902.29544101-.534074.219-.83l-1.575-5.861c-.12178109-.4594416.14415798-.9323699.6-1.067l6.061-1.74c.2919709-.0877839.5184938-.3192147.6-.613l1.585-5.869c.1233223-.45776465.5894418-.73344103 1.05-.621l6.119 1.522c.2976634.07851935.6145935-.00805482.831-.227l4.277-4.277c.3438232-.34090001.8981768-.34090001 1.242 0l4.281 4.277c.2165145.21876028.5333376.30530521.831.227l6.132-1.522c.4561522-.11349038.9212533.15027204 1.058.6l1.741 6.079c.086585.2923343.3180086.5192202.612.6l5.865 1.583c.4579736.1224111.7339557.5886031.621 1.049l-1.522 6.123c-.0778788.2976602.008608.6142705.227.831l4.277 4.277c.3419928.3433725.3419928.8986275 0 1.242z" fill="#f29c1f"/><circle id="Oval" cx="25.998" cy="25" fill="#e57e25" r="19"/><circle id="Oval" cx="25.998" cy="25" fill="#f0c419" r="17"/><ellipse id="Oval" cx="18.466" cy="16.81" fill="#f3d55b" rx="7.41" ry="5.601" transform="matrix(.746 -.666 .666 .746 -6.504 16.554)"/><path id="Shape" d="m29 24c-.5522847 0-1-.4477153-1-1 0-.408-.779-1-2-1s-2 .592-2 1c0 .5522847-.4477153 1-1 1s-1-.4477153-1-1c0-1.682 1.757-3 4-3s4 1.318 4 3c0 .5522847-.4477153 1-1 1z" fill="#35495e"/><path id="Shape" d="m59 43c0 1.6568542-1.3431458 3-3 3h-12c1.6568542.0000001 2.9999999 1.3431458 2.9999999 3s-1.3431457 2.9999999-2.9999999 3h8c1.6568542 0 3 1.3431458 3 3s-1.3431458 3-3 3h-18c-1.6568542 0-3-1.3431458-3-3s1.3431458-3 3-3h-6c-1.6568542 0-3-1.3431458-3-3s1.3431458-3 3-3h-4c-1.6568542 0-3-1.3431458-3-3s1.3431458-3 3-3h6c-1.6568542 0-3-1.3431458-3-3s1.3431458-3 3-3h5c-1.6568542 0-3-1.3431458-3-3s1.3431458-3 3-3h14c1.6568542 0 3 1.3431458 3 3s-1.3431458 3-3 3h4c1.6568542 0 3 1.3431458 3 3s-1.3431458 3-3 3h3c.7956495 0 1.5587112.3160705 2.1213203.8786797.5626092.5626091.8786797 1.3256708.8786797 2.1213203z" fill="#7f8c8d"/><path id="Shape" d="m53 43c0 1.6568542-1.3431458 3-3 3h-12c1.6568542.0000001 2.9999999 1.3431458 2.9999999 3s-1.3431457 2.9999999-2.9999999 3h8c1.6568542 0 3 1.3431458 3 3s-1.3431458 3-3 3h-12c-1.6568542 0-3-1.3431458-3-3s1.3431458-3 3-3h-6c-1.6568542 0-3-1.3431458-3-3s1.3431458-3 3-3h-4c-1.6568542 0-3-1.3431458-3-3s1.3431458-3 3-3h6c-1.6568542 0-3-1.3431458-3-3s1.3431458-3 3-3h5c-1.6568542 0-3-1.3431458-3-3s1.3431458-3 3-3h8c1.6568542 0 3 1.3431458 3 3s-1.3431458 3-3 3h4c1.6568542 0 3 1.3431458 3 3s-1.3431458 3-3 3h3c.7956495 0 1.5587112.3160705 2.1213203.8786797.5626092.5626091.8786797 1.3256708.8786797 2.1213203z" fill="#7f8c8d"/><path id="Shape" d="m49 55c0 1.6568542-1.3431458 3-3 3h-5c-1.6568542 0-3-1.3431458-3-3s1.3431458-3 3-3h5c1.6568542 0 3 1.3431458 3 3z" fill="#95a5a5"/><path id="Shape" d="m53 43c0 1.6568542-1.3431458 3-3 3h-12c1.6568542.0000001 2.9999999 1.3431458 2.9999999 3s-1.3431457 2.9999999-2.9999999 3h-3c-1.6568542 0-3-1.3431458-3-3s1.3431458-3 3-3h-4c-1.6568542 0-3-1.3431458-3-3s1.3431458-3 3-3h6c-1.6568542 0-3-1.3431458-3-3s1.3431458-3 3-3h5c-1.6568542 0-3-1.3431458-3-3s1.3431458-3 3-3h1c1.6568542 0 3 1.3431458 3 3s-1.3431458 3-3 3h4c1.6568542 0 3 1.3431458 3 3s-1.3431458 3-3 3h3c.7956495 0 1.5587112.3160705 2.1213203.8786797.5626092.5626091.8786797 1.3256708.8786797 2.1213203z" fill="#95a5a5"/><circle id="Oval" cx="19" cy="17" fill="#3f5c6c" r="3"/><circle id="Oval" cx="33" cy="17" fill="#3f5c6c" r="3"/><ellipse id="Oval" cx="17.5" cy="22" fill="#fb7b76" rx="2.5" ry="1"/><ellipse id="Oval" cx="34.5" cy="22" fill="#fb7b76" rx="2.5" ry="1"/><g fill="#ecf0f1"><circle id="Oval" cx="18" cy="16" r="1"/><circle id="Oval" cx="32" cy="16" r="1"/></g></g></g></svg>