<svg id="Capa_1" enable-background="new 0 0 512 512" height="512" viewBox="0 0 512 512" width="512" xmlns="http://www.w3.org/2000/svg"><g><g><path d="m301.997 499.153 141.395-147.41c6.422-20.996 9.888-43.284 9.888-66.383 0-125.17-101.47-226.64-226.64-226.64-63.097 0-120.163 25.793-161.253 67.4l-65.365 160.997c.16 21.085 3.19 41.486 8.735 60.826l212.467 163.989c1.801.042 3.605.069 5.416.069 26.421-.001 51.779-4.538 75.357-12.848z" fill="#87c7ff"/></g><g><path d="m282.527 65.672c-17.878-4.534-36.6-6.951-55.887-6.951-63.097 0-120.163 25.793-161.253 67.4l-65.365 160.996c.16 21.085 3.19 41.486 8.735 60.826l212.467 163.989c1.801.042 3.605.069 5.416.069 19.288 0 38.01-2.417 55.887-6.951-98.142-24.891-170.753-113.806-170.753-219.688s72.612-194.799 170.753-219.69z" fill="#65b1fc"/></g><g><path d="m191.667 275.072c.044 18.228 27.467 72.595 39.318 78.908s83.146-7.102 95.237-18.149c12.092-11.047-14.93-108.111-25.784-115.994-26.829-19.486-108.843 25.84-108.771 55.235z" fill="#1adfb3"/></g><g><path d="m443.392 351.743c-23.048-15.081-47.246-28.562-60.11-28.562-29.196 0-99.423 67.071-104.925 95.376-3.977 20.459 13.593 60.157 23.64 80.596 67.508-23.796 120.361-78.648 141.395-147.41z" fill="#1adfb3"/></g><g><g><g><ellipse cx="152.322" cy="161.423" fill="#fff" rx="30.241" ry="24.082"/></g><g><ellipse cx="316.238" cy="161.423" fill="#fff" rx="30.241" ry="24.082"/></g></g><g><path d="m169.947 145.741c-4.142 0-7.5-3.358-7.5-7.5v-12.362c0-4.142 3.358-7.5 7.5-7.5s7.5 3.358 7.5 7.5v12.362c0 4.142-3.358 7.5-7.5 7.5z" fill="#495560"/></g><g><path d="m298.613 145.741c-4.142 0-7.5-3.358-7.5-7.5v-12.362c0-4.142 3.358-7.5 7.5-7.5s7.5 3.358 7.5 7.5v12.362c0 4.142-3.358 7.5-7.5 7.5z" fill="#495560"/></g><g><path d="m251.244 153.1c-2.093 0-4.174-.871-5.657-2.573-2.854-3.275-6.976-5.154-11.307-5.154s-8.453 1.879-11.307 5.154c-2.722 3.123-7.46 3.447-10.582.727-3.123-2.721-3.448-7.459-.727-10.582 5.704-6.546 13.947-10.3 22.616-10.3 8.668 0 16.911 3.754 22.615 10.3 2.721 3.123 2.396 7.86-.727 10.582-1.42 1.238-3.176 1.846-4.924 1.846z" fill="#495560"/></g></g><g><path d="m450.189 198.884v-137.073c0-34.137-27.674-61.811-61.811-61.811-34.137 0-61.811 27.674-61.811 61.811v137.074c-36.95 21.375-61.811 61.323-61.811 107.079 0 68.274 55.347 123.622 123.622 123.622s123.622-55.348 123.622-123.622c0-45.757-24.861-85.705-61.811-107.08z" fill="#f2f6fc"/></g><g><path d="m367.775 408.982c0-11.379 9.225-20.604 20.604-20.604v-347.171c-11.379 0-20.604-9.225-20.604-20.604 0-11.378 9.224-20.603 20.603-20.603-34.137 0-61.811 27.674-61.811 61.811v137.074c-36.95 21.375-61.811 61.323-61.811 107.079 0 68.274 55.347 123.622 123.622 123.622-11.379 0-20.603-9.225-20.603-20.604z" fill="#e9edf5"/></g><g><path d="m429.555 234.553-20.573-11.901v-160.841c0-11.625-9.678-21.032-21.399-20.589-11.149.422-19.808 9.937-19.808 21.095v160.335l-20.573 11.901c-25.437 14.714-41.238 42.077-41.238 71.41 0 45.444 36.971 82.414 82.414 82.414s82.414-36.971 82.414-82.414c0-29.332-15.801-56.695-41.237-71.41z" fill="#ff889f"/></g><g><path d="m347.202 234.553c-25.437 14.714-41.238 42.077-41.238 71.41 0 45.444 36.971 82.414 82.414 82.414s82.414-36.971 82.414-82.414h-19.706c-46.012 0-83.312-37.3-83.312-83.312z" fill="#ff7590"/></g><g><path d="m174.042 344.486c-8.815-22.883-65.884-48.66-100.603-44.451-21.718 2.633-48.025 28.731-64.681 47.908 26.684 93.073 111.388 161.618 212.467 163.989-3.473-15.159-11.651-27.249-23.374-35.67-14.629-10.507-25.25-33.141-22.927-51.29s7.933-57.603-.882-80.486z" fill="#1adfb3"/></g><g><path d="m197.85 476.262c-9.747-7.001-17.709-19.386-21.254-32.241-35.908-36.618-59.482-85.365-64.01-139.533-13.791-3.962-27.687-5.842-39.147-4.453-21.718 2.633-48.025 28.731-64.681 47.908 26.684 93.073 111.388 161.618 212.467 163.989-3.474-15.159-11.651-27.25-23.375-35.67z" fill="#00d397"/></g><g><path d="m88.168 167.154c-1.878-11.919-12.336-27.732-22.782-41.034-40.423 40.932-65.386 97.167-65.386 159.24 0 .587.018 1.17.022 1.757 17.904-4.635 35.397-9.409 42.38-12.069 16.57-6.313 49.712-82.853 45.766-107.894z" fill="#00d397"/></g><g><g><path d="m336.869 315.467c-4.142 0-7.5-3.358-7.5-7.5v-9.898c0-4.142 3.358-7.5 7.5-7.5s7.5 3.358 7.5 7.5v9.898c0 4.142-3.358 7.5-7.5 7.5z" fill="#495560"/></g><g><path d="m439.887 315.467c-4.142 0-7.5-3.358-7.5-7.5v-9.898c0-4.142 3.358-7.5 7.5-7.5s7.5 3.358 7.5 7.5v9.898c0 4.142-3.358 7.5-7.5 7.5z" fill="#495560"/></g><g><path d="m374.795 321.359c-1.748 0-3.503-.607-4.924-1.846-3.123-2.721-3.448-7.458-.727-10.582 4.851-5.567 11.862-8.76 19.234-8.76s14.383 3.193 19.234 8.759c2.721 3.123 2.396 7.86-.727 10.582-3.123 2.721-7.86 2.396-10.582-.727-2.002-2.297-4.891-3.615-7.926-3.615s-5.924 1.317-7.926 3.614c-1.481 1.704-3.563 2.575-5.656 2.575z" fill="#495560"/></g></g></g></svg>