<svg height="512" viewBox="0 0 58 58" width="512" xmlns="http://www.w3.org/2000/svg"><g id="Page-1" fill="none" fill-rule="evenodd"><g id="017---Heatwave" fill-rule="nonzero" transform="translate(-1)"><path id="Shape" d="m53.742 34.682c-.253791.2511579-.3544125.6185789-.264.964l1.766 7.112c.1318942.5305658-.1762646 1.0711645-.7 1.228l-7.052 2.019c-.3404739.0995905-.6052487.3681478-.7.71l-1.826 6.808c-.1424435.531445-.6837202.8514115-1.218.72l-7.1-1.765c-.3454211-.0904125-.7128421.010209-.964.264l-4.963 4.958c-.3986159.3962403-1.0423841.3962403-1.441 0l-4.962-4.961c-.2509522-.2534351-.6178896-.3540285-.963-.264l-7.1 1.765c-.5339503.1307895-1.0745525-.189041-1.217-.72l-1.827-6.808c-.0947513-.3418522-.3595261-.6104095-.7-.71l-7.034-2.016c-.53069687-.1542437-.84139544-.7037364-.7-1.238l1.823-6.798c.0892834-.343466-.0065571-.7086448-.253-.964l-5.091-5.286c-.37486459-.3913862-.37486459-1.0086138 0-1.4l5.094-5.286c.24537482-.2559537.34005907-.6210562.25-.964l-1.826-6.8c-.14139544-.5342636.16930313-1.0837563.7-1.238l7.034-2.012c.3404739-.0995905.6052487-.3681478.7-.71l1.827-6.808c.1424475-.53095902.6830497-.85078945 1.217-.72l7.1 1.765c.3451104.09002849.7120478-.01056494.963-.264l4.965-4.963c.3986159-.39624026 1.0423841-.39624026 1.441 0l4.961 4.961c.2511579.25379102.6185789.35441255.964.264l7.112-1.765c.5306408-.13243855 1.0715946.17592271 1.228.7l2.019 7.051c.0995905.3404739.3681478.6052487.71.7l6.808 1.827c.5313634.1420087.8517187.6827471.721 1.217l-1.766 7.1c-.0904125.3454211.010209.7128421.264.964l4.958 4.961c.3961243.3982737.3961243 1.0417263 0 1.44z" fill="#f29c1f"/><circle id="Oval" cx="30" cy="29" fill="#e57e25" r="23"/><circle id="Oval" cx="30" cy="29" fill="#f0c419" r="21"/><ellipse id="Oval" cx="21.264" cy="19.5" fill="#f3d55b" rx="8.596" ry="6.497" transform="matrix(.746 -.666 .666 .746 -7.585 19.099)"/><g fill="#3f5c6c"><path id="Shape" d="m25 24h-5c-.5522847 0-1-.4477153-1-1s.4477153-1 1-1h5c.5522847 0 1 .4477153 1 1s-.4477153 1-1 1z"/><path id="Shape" d="m23 27h-3c-.5522847 0-1-.4477153-1-1s.4477153-1 1-1h3c.5522847 0 1 .4477153 1 1s-.4477153 1-1 1z"/><path id="Shape" d="m40 24h-5c-.5522847 0-1-.4477153-1-1s.4477153-1 1-1h5c.5522847 0 1 .4477153 1 1s-.4477153 1-1 1z"/><path id="Shape" d="m40 27h-3c-.5522847 0-1-.4477153-1-1s.4477153-1 1-1h3c.5522847 0 1 .4477153 1 1s-.4477153 1-1 1z"/></g><path id="Shape" d="m46.761 32.812c-.471635.9681041-1.4259725 1.6091532-2.500539 1.6796659s-2.1044908-.4403297-2.6985902-1.3385007-.6612209-2.0458638-.1758708-3.0071652c.737-1.484 4.914-3.146 4.914-3.146s1.2 4.328.461 5.812z" fill="#2fa8cc"/><path id="Shape" d="m14.286 35.415c.7872606 1.4497502 2.5973689 1.9918221 4.0518934 1.2134178 1.4545246-.7784044 2.0076257-2.585173 1.2381066-4.0444178-.782-1.461-5.005-2.993-5.005-2.993s-1.071 4.364-.285 5.824z" fill="#2fa8cc"/><path id="Shape" d="m24.318 17.144c-.5314817.5023707-1.294786.6745917-1.9904907.4491059-.6957048-.2254859-1.2128614-.8127189-1.3486042-1.5313447-.1357428-.7186257.131576-1.45404.6970949-1.9177612.829-.733 4.324-1.144 4.324-1.144s-.853 3.414-1.682 4.144z" fill="#2fa8cc"/><path id="Shape" d="m36.679 18.144c.5314817.5023707 1.294786.6745917 1.9904907.4491059.6957048-.2254859 1.2128614-.8127189 1.3486042-1.5313447.1357428-.7186257-.131576-1.45404-.6970949-1.9177612-.829-.733-4.321-1.144-4.321-1.144s.85 3.414 1.679 4.144z" fill="#2fa8cc"/><ellipse id="Oval" cx="30" cy="29.5" fill="#802d40" rx="3" ry="2.5"/><path id="Shape" d="m27.8 43.075c.5105872.979477.130477 2.1874127-.849 2.698-.979477.5105872-2.1874127.130477-2.698-.849-.51-.979-.075-4.471-.075-4.471s3.107 1.647 3.622 2.622z" fill="#2fa8cc"/><path id="Shape" d="m35.227 40.622c-.5105872.979477-.130477 2.1874127.849 2.698.979477.5105872 2.1874127.130477 2.698-.849.51-.979.075-4.471.075-4.471s-3.112 1.643-3.622 2.622z" fill="#2fa8cc"/></g></g></svg>