<svg height="512" viewBox="0 0 59 59" width="512" xmlns="http://www.w3.org/2000/svg"><g id="Page-1" fill="none" fill-rule="evenodd"><g id="023---Cresent-Moon" fill-rule="nonzero"><path id="Shape" d="m58.67 34.39c-2.4002104 15.7248943-17.014609 26.5849005-32.763359 24.3465565-15.7487501-2.238344-26.75849909-16.7402683-24.68225822-32.5112079s16.46415662-26.92926666 32.25561722-25.0153486c.0578936.00744007.114863.02084464.17.04h.03c.3746629.12612479.6398574.4611295.676623.85473851.0367657.393609-.1617992.7719319-.506623.96526149-6.3609908 3.4750327-9.8207094 10.5996078-8.6182399 17.7474833 1.2024694 7.1478754 6.8028812 12.7482872 13.9507566 13.9507566 7.1478755 1.2024695 14.2724506-2.2572491 17.7474833-8.6182399.1933296-.3448238.5716525-.5433887.9652615-.506623.393609.0367656.7286137.3019601.8547385.676623v.03c.0191554.055137.0325599.1121064.04.17.3140437 2.6167958.2736798 5.2639954-.12 7.87z" fill="#f0c419"/><path id="Shape" d="m58.75 26.32v.03c-1.7218601 11.1494721-11.5984703 19.1895185-22.8654045 18.6135637-11.2669343-.5759549-20.2722043-9.5812249-20.8481592-20.8481592-.5759548-11.2669342 7.4640916-21.14354443 18.6135637-22.8654045h.03c.3746629.12612479.6398574.4611295.676623.85473851.0367657.393609-.1617992.7719319-.506623.96526149-6.3609908 3.4750327-9.8207094 10.5996078-8.6182399 17.7474833 1.2024694 7.1478754 6.8028812 12.7482872 13.9507566 13.9507566 7.1478755 1.2024695 14.2724506-2.2572491 17.7474833-8.6182399.1933296-.3448238.5716525-.5433887.9652615-.506623.393609.0367656.7286137.3019601.8547385.676623z" fill="#f3d55b"/><circle id="Oval" cx="8" cy="28" fill="#f29c1f" r="3"/><path id="Shape" d="m31 42c-1.6568542 0-3-1.3431458-3-3 0-.5522847.4477153-1 1-1s1 .4477153 1 1 .4477153 1 1 1 1-.4477153 1-1 .4477153-1 1-1 1 .4477153 1 1c0 1.6568542-1.3431458 3-3 3z" fill="#547580"/><path id="Shape" d="m17 42c-1.6568542 0-3-1.3431458-3-3 0-.5522847.4477153-1 1-1s1 .4477153 1 1 .4477153 1 1 1 1-.4477153 1-1 .4477153-1 1-1 1 .4477153 1 1c0 1.6568542-1.3431458 3-3 3z" fill="#547580"/><path id="Shape" d="m24 47c-3.164 0-4-1.962-4-3 0-.5522847.4477153-1 1-1s1 .4477153 1 1c.011.143.16 1 2 1s1.989-.857 2-1.029c.0351284-.5417433.4891872-.9606037 1.032-.952.5360241.0087147.9664364.4449074.968.981 0 1.038-.836 3-4 3z" fill="#3f5c6c"/><circle id="Oval" cx="32" cy="52" fill="#f29c1f" r="2"/><circle id="Oval" cx="21" cy="32" fill="#f29c1f" r="2"/><g fill="#f0c419"><path id="Shape" d="m55 3c-.5522847 0-1-.44771525-1-1v-1c0-.55228475.4477153-1 1-1s1 .44771525 1 1v1c0 .55228475-.4477153 1-1 1z"/><path id="Shape" d="m58 5h-1c-.5522847 0-1-.44771525-1-1s.4477153-1 1-1h1c.5522847 0 1 .44771525 1 1s-.4477153 1-1 1z"/><path id="Shape" d="m53 5h-1c-.5522847 0-1-.44771525-1-1s.4477153-1 1-1h1c.5522847 0 1 .44771525 1 1s-.4477153 1-1 1z"/><path id="Shape" d="m55 8c-.5522847 0-1-.44771525-1-1v-1c0-.55228475.4477153-1 1-1s1 .44771525 1 1v1c0 .55228475-.4477153 1-1 1z"/><path id="Shape" d="m48 20c-.5522847 0-1-.4477153-1-1v-1c0-.5522847.4477153-1 1-1s1 .4477153 1 1v1c0 .5522847-.4477153 1-1 1z"/><path id="Shape" d="m51 22h-1c-.5522847 0-1-.4477153-1-1s.4477153-1 1-1h1c.5522847 0 1 .4477153 1 1s-.4477153 1-1 1z"/><path id="Shape" d="m46 22h-1c-.5522847 0-1-.4477153-1-1s.4477153-1 1-1h1c.5522847 0 1 .4477153 1 1s-.4477153 1-1 1z"/><path id="Shape" d="m48 25c-.5522847 0-1-.4477153-1-1v-1c0-.5522847.4477153-1 1-1s1 .4477153 1 1v1c0 .5522847-.4477153 1-1 1z"/><path id="Shape" d="m36 14c-.5522847 0-1-.4477153-1-1v-1c0-.5522847.4477153-1 1-1s1 .4477153 1 1v1c0 .5522847-.4477153 1-1 1z"/><path id="Shape" d="m39 16h-1c-.5522847 0-1-.4477153-1-1s.4477153-1 1-1h1c.5522847 0 1 .4477153 1 1s-.4477153 1-1 1z"/><path id="Shape" d="m34 16h-1c-.5522847 0-1-.4477153-1-1s.4477153-1 1-1h1c.5522847 0 1 .4477153 1 1s-.4477153 1-1 1z"/><path id="Shape" d="m36 19c-.5522847 0-1-.4477153-1-1v-1c0-.5522847.4477153-1 1-1s1 .4477153 1 1v1c0 .5522847-.4477153 1-1 1z"/></g><path id="Shape" d="m25.03 18.91c-.3399694.060603-.684672.0907226-1.03.09-2.6619635.0012442-5.006493-1.7515701-5.7584439-4.3051208-.7519509-2.5535506.2684773-5.29725301 2.5062933-6.73886001s5.157931-1.23641304 7.1721506.50398081c-2.0837247 3.0719322-3.0992364 6.7439379-2.89 10.45z" fill="#f29c1f"/><path id="Shape" d="m56.19 42.48c-2.6635514 5.5344442-7.0019887 10.0898033-12.4 13.02-2.3257991-2.2150466-3.2932128-5.5026332-2.5378256-8.6243576s3.1188139-5.6033224 6.2000001-6.5100001c3.0811863-.9066777 6.4120265-.1006891 8.7378255 2.1143577z" fill="#f29c1f"/></g></g></svg>