<svg id="Capa_1" enable-background="new 0 0 512 512" height="512" viewBox="0 0 512 512" width="512" xmlns="http://www.w3.org/2000/svg"><g><g><path d="m454.616 323.36v-252.92c0-29.121-23.607-52.728-52.728-52.728h-349.16c-29.121.001-52.728 23.608-52.728 52.729v252.919c0 29.121 23.607 52.728 52.728 52.728h114.937c6.834 0 13.151 3.641 16.576 9.555l39.568 68.314h25l39.568-68.314c3.425-5.914 9.742-9.555 16.576-9.555h39.382.002 57.555c29.119-.002 52.724-23.608 52.724-52.728z" fill="#e28086"/><g fill="#dd636e"><path d="m263.376 385.642-39.568 68.314 18.934 32.689c5.902 10.189 20.614 10.189 26.516 0l58.502-101.003c3.425-5.914 9.742-9.555 16.576-9.555h-64.384c-6.834.001-13.151 3.641-16.576 9.555z"/><path d="m459.272 17.713h-64.384c29.121 0 52.728 23.607 52.728 52.728v252.919c0 29.121-23.607 52.728-52.728 52.728h64.384c29.121 0 52.728-23.607 52.728-52.728v-252.92c0-29.12-23.607-52.727-52.728-52.727z"/></g></g><g><g><g><g><g><g><circle cx="256" cy="198.503" fill="#ffe07d" r="128.243"/><path d="m256 70.26c-11.04 0-21.759 1.403-31.987 4.038 55.287 14.247 96.255 64.531 96.255 124.204s-40.968 109.959-96.255 124.205c10.229 2.636 20.947 4.038 31.987 4.038 70.714 0 128.243-57.529 128.243-128.242s-57.529-128.243-128.243-128.243z" fill="#ffd064"/><g><g><g><g><path d="m217.017 173.823c-12.704 0-23.04-10.336-23.04-23.041 0-4.267 3.459-7.726 7.726-7.726s7.726 3.459 7.726 7.726c0 4.184 3.403 7.588 7.588 7.588 4.184 0 7.589-3.404 7.589-7.588 0-4.267 3.459-7.726 7.726-7.726 4.268 0 7.726 3.459 7.726 7.726 0 12.705-10.336 23.041-23.041 23.041z" fill="#e27d47"/></g><g><path d="m294.983 173.823c-12.705 0-23.041-10.336-23.041-23.041 0-4.267 3.459-7.726 7.726-7.726s7.726 3.459 7.726 7.726c0 4.184 3.404 7.588 7.589 7.588 4.184 0 7.588-3.404 7.588-7.588 0-4.267 3.459-7.726 7.726-7.726s7.726 3.459 7.726 7.726c0 12.705-10.336 23.041-23.04 23.041z" fill="#e27d47"/></g></g></g></g><g><path d="m315.783 264.308c-2.73 0-5.377-1.45-6.782-4.014-8.085-14.746-29.384-24.654-53.001-24.654s-44.917 9.907-53.001 24.654c-2.05 3.741-6.746 5.111-10.489 3.061-3.741-2.051-5.112-6.747-3.06-10.489 10.882-19.851 37.005-32.678 66.55-32.678s55.668 12.827 66.55 32.678c2.051 3.742.681 8.438-3.06 10.489-1.178.646-2.452.953-3.707.953z" fill="#e27d47"/></g></g></g></g></g></g></g></g></svg>