<svg id="Capa_1" enable-background="new 0 0 512 512" height="512" viewBox="0 0 512 512" width="512" xmlns="http://www.w3.org/2000/svg"><g><g><path d="m311.582 118.513-55.582 96.271-55.582-96.27c-5.691-9.857-18.295-13.234-28.151-7.543-9.857 5.691-13.234 18.295-7.543 28.152l55.582 96.27h-111.164c-11.382 0-20.608 9.227-20.608 20.608 0 11.382 9.227 20.608 20.608 20.608h111.163l-55.582 96.27c-5.691 9.857-2.314 22.461 7.543 28.151 9.857 5.691 22.461 2.314 28.151-7.543l55.583-96.27 55.582 96.27c5.691 9.857 18.295 13.234 28.151 7.543 9.857-5.691 13.234-18.295 7.543-28.151l-55.582-96.27h111.163c11.382 0 20.608-9.227 20.608-20.608 0-11.382-9.227-20.608-20.608-20.608h-111.162l55.582-96.27c5.691-9.857 2.314-22.461-7.543-28.152-9.858-5.692-22.461-2.314-28.152 7.542z" fill="#87c7ff"/></g><g><circle cx="26.723" cy="256" fill="#a3d4ff" r="20.604"/></g><g><circle cx="485.277" cy="256" fill="#a3d4ff" r="20.604"/></g><g><circle cx="141.361" cy="454.56" fill="#a3d4ff" r="20.604"/></g><g><circle cx="370.639" cy="57.44" fill="#a3d4ff" r="20.604"/></g><g><circle cx="370.639" cy="454.56" fill="#a3d4ff" r="20.604"/></g><g><circle cx="141.361" cy="57.44" fill="#a3d4ff" r="20.604"/></g><g><path d="m460.906 314.888c-12.195-7.801-26.297-9.812-39.234-6.862-15.493 3.533-31.73 1.514-45.491-6.431l-1.71-.987c-15.937-9.201-25.754-26.206-25.754-44.608 0-18.402 9.818-35.407 25.754-44.608l1.71-.987c13.762-7.945 29.998-9.964 45.491-6.431 12.936 2.95 27.039.939 39.234-6.862 21.775-13.93 29.869-42.35 18.637-65.632-13.169-27.297-46.44-37.208-72.203-22.334-11.967 6.909-20.107 17.894-23.687 30.19-4.384 15.057-14.728 27.676-28.309 35.517l-1.476.852c-15.937 9.201-35.572 9.201-51.509 0-15.937-9.201-25.755-26.206-25.755-44.608v-1.974c0-15.891 6.37-30.961 17.176-42.612 9.022-9.728 14.332-22.945 13.674-37.406-1.207-26.522-22.841-48.017-49.37-49.063-29.397-1.159-53.593 22.329-53.593 51.468 0 13.818 5.443 26.361 14.301 35.609 10.848 11.325 16.604 26.593 16.604 42.275v1.704c0 18.402-9.818 35.407-25.755 44.608-15.937 9.201-35.572 9.201-51.509 0l-1.71-.987c-13.762-7.945-23.628-20.997-28.315-36.181-3.913-12.677-12.705-23.885-25.558-30.546-23.572-12.216-53.004-4.228-67.175 18.224-15.703 24.879-7.46 57.578 17.776 72.147 11.967 6.909 25.551 8.466 37.989 5.419 15.232-3.732 31.332-1.083 44.913 6.758l1.476.852c15.937 9.201 25.754 26.206 25.754 44.608 0 18.402-9.818 35.407-25.754 44.608l-1.71.987c-13.762 7.945-29.998 9.964-45.491 6.431-12.936-2.95-27.039-.939-39.234 6.862-21.776 13.93-29.869 42.35-18.638 65.632 13.169 27.297 46.44 37.208 72.203 22.334 11.967-6.909 20.108-17.894 23.687-30.19 4.384-15.057 14.728-27.676 28.309-35.517l1.476-.852c15.937-9.201 35.572-9.201 51.509 0 15.937 9.201 25.755 26.206 25.755 44.608v1.974c0 15.891-6.37 30.961-17.176 42.612-9.022 9.728-14.332 22.945-13.674 37.406 1.207 26.522 22.841 48.017 49.37 49.063 29.397 1.159 53.593-22.329 53.593-51.468 0-13.818-5.443-26.361-14.301-35.609-10.848-11.325-16.604-26.593-16.604-42.275v-1.704c0-18.402 9.818-35.407 25.755-44.608 15.937-9.201 35.572-9.201 51.509 0l1.476.852c13.581 7.841 23.925 20.46 28.309 35.517 3.58 12.295 11.721 23.281 23.687 30.19 25.763 14.874 59.034 4.963 72.203-22.334 11.234-23.281 3.14-51.701-18.635-65.631z" fill="#bfe1ff"/></g><g><g><g><path d="m196.817 266.001c-4.142 0-7.5-3.358-7.5-7.5v-12.361c0-4.142 3.358-7.5 7.5-7.5s7.5 3.358 7.5 7.5v12.362c0 4.142-3.358 7.499-7.5 7.499z" fill="#495560"/></g><g><path d="m315.183 266.001c-4.143 0-7.5-3.358-7.5-7.5v-12.361c0-4.142 3.357-7.5 7.5-7.5s7.5 3.358 7.5 7.5v12.362c0 4.142-3.358 7.499-7.5 7.499z" fill="#495560"/></g><g><path d="m256 273.36c-8.668 0-16.911-3.754-22.615-10.299-2.722-3.123-2.396-7.86.726-10.582 3.123-2.722 7.86-2.397 10.582.726 2.855 3.276 6.976 5.154 11.307 5.154s8.452-1.878 11.307-5.154c2.723-3.123 7.459-3.448 10.582-.726 3.123 2.721 3.448 7.459.727 10.582-5.705 6.545-13.948 10.299-22.616 10.299z" fill="#495560"/></g></g></g></g></svg>