<svg id="Capa_1" enable-background="new 0 0 512 512" height="512" viewBox="0 0 512 512" width="512" xmlns="http://www.w3.org/2000/svg"><g><g><path d="m444.632 282.979 46.856-4.434c11.628-1.101 20.512-10.865 20.512-22.545 0-11.68-8.884-21.444-20.512-22.545l-46.793-4.428c23.421-10.934 13.981-46.21-11.771-43.984l-.074.006 38.361-27.268c9.52-6.767 12.332-19.665 6.491-29.78-5.84-10.115-18.416-14.13-29.036-9.268l-42.738 19.561c14.817-21.179-10.997-47.01-32.186-32.206l-.061.043 19.587-42.795c4.861-10.621.847-23.196-9.268-29.036-10.115-5.84-23.013-3.029-29.78 6.491l-27.232 38.31c2.242-25.75-33.029-35.213-43.977-11.798l-.032.068-4.434-46.856c-1.101-11.631-10.865-20.515-22.545-20.515-11.68 0-21.444 8.884-22.545 20.512l-4.428 46.793c-10.934-23.421-46.21-13.981-43.984 11.771l.006.074-27.269-38.361c-6.767-9.52-19.665-12.332-29.78-6.491-10.115 5.84-14.13 18.416-9.268 29.036l19.561 42.738c-21.179-14.817-47.01 10.997-32.206 32.186l.043.061-42.795-19.588c-10.621-4.861-23.196-.847-29.036 9.268-5.84 10.115-3.029 23.013 6.491 29.78l38.31 27.232c-25.75-2.242-35.213 33.029-11.798 43.977l.068.032-46.856 4.434c-11.63 1.102-20.514 10.866-20.514 22.546 0 11.68 8.884 21.444 20.512 22.545l46.793 4.428c-23.421 10.934-13.981 46.21 11.771 43.984l.074-.006-38.361 27.269c-9.52 6.767-12.332 19.665-6.491 29.78 5.84 10.115 18.416 14.13 29.036 9.268l42.738-19.561c-14.817 21.179 10.997 47.01 32.186 32.206l.061-.043-19.587 42.795c-4.861 10.621-.847 23.196 9.268 29.036 10.115 5.84 23.013 3.029 29.78-6.491l27.232-38.31c-2.242 25.75 33.029 35.213 43.977 11.798l.032-.068 4.434 46.856c1.101 11.63 10.865 20.514 22.545 20.514 11.68 0 21.444-8.884 22.545-20.512l4.428-46.793c10.934 23.421 46.21 13.981 43.984-11.771l-.006-.075 27.268 38.361c6.767 9.52 19.665 12.332 29.78 6.491 10.115-5.84 14.13-18.416 9.268-29.036l-19.561-42.738c21.179 14.816 47.01-10.997 32.206-32.186l-.043-.061 42.795 19.588c10.621 4.861 23.196.847 29.036-9.268 5.84-10.115 3.029-23.013-6.491-29.78l-38.31-27.232c25.75 2.242 35.213-33.029 11.798-43.977z" fill="#ffa973"/></g><g><circle cx="256" cy="256" fill="#fcef92" r="144.225"/></g><g><path d="m174.441 256c0-68.892 48.306-126.492 112.892-140.802-10.089-2.235-20.572-3.424-31.333-3.424-79.653 0-144.225 64.572-144.225 144.225s64.572 144.226 144.225 144.226c10.762 0 21.244-1.188 31.333-3.424-64.585-14.309-112.892-71.909-112.892-140.801z" fill="#ffd883"/></g><g><g><path d="m204.535 237.403c-.041 13.236-13.549 23.923-30.169 23.871s-30.06-10.824-30.019-24.059c.041-13.236 13.548-23.923 30.169-23.871s30.06 10.824 30.019 24.059z" fill="#ffa1ac"/></g><g><path d="m307.465 237.726c-.041 13.235 13.398 24.007 30.018 24.059s30.127-10.635 30.169-23.871c.041-13.236-13.398-24.007-30.018-24.06-16.62-.051-30.128 10.636-30.169 23.872z" fill="#ffa1ac"/></g><g><path d="m280.32 219.227c.047-14.995-10.811-16.438-24.211-16.48s-24.267 1.333-24.314 16.328c-.047 14.994 10.778 27.184 24.178 27.226s24.3-12.079 24.347-27.074z" fill="#495560"/></g><g><path d="m206.386 218.831c-.008 0-.016 0-.024 0-4.142-.013-7.49-3.381-7.477-7.523.006-1.823-.699-3.539-1.983-4.832s-2.996-2.008-4.819-2.014c-.007 0-.015 0-.022 0-3.753 0-6.812 3.047-6.823 6.802-.013 4.134-3.369 7.477-7.5 7.477-.008 0-.016 0-.024 0-4.142-.013-7.49-3.381-7.477-7.523.038-12.01 9.821-21.755 21.822-21.755h.07c5.83.019 11.303 2.306 15.412 6.44 4.109 4.135 6.362 9.623 6.343 15.452-.012 4.133-3.367 7.476-7.498 7.476z" fill="#495560"/></g><g><path d="m334.426 219.231c-.008 0-.016 0-.023 0-4.142-.013-7.49-3.381-7.477-7.523.012-3.763-3.04-6.834-6.803-6.846-.007 0-.015 0-.021 0-3.753 0-6.812 3.047-6.824 6.803-.013 4.134-3.369 7.477-7.5 7.477-.008 0-.016 0-.024 0-4.142-.013-7.49-3.381-7.477-7.523.038-12.01 9.822-21.756 21.823-21.756h.068c12.034.038 21.793 9.858 21.756 21.892-.011 4.134-3.367 7.476-7.498 7.476z" fill="#495560"/></g></g></g></svg>