<svg height="512" viewBox="0 0 58 58" width="512" xmlns="http://www.w3.org/2000/svg"><g id="Page-1" fill="none" fill-rule="evenodd"><g id="001---Sunny" fill-rule="nonzero" transform="translate(-1)"><path id="Shape" d="m53.742 34.682c-.253791.2511579-.3544125.6185789-.264.964l1.766 7.112c.1318942.5305658-.1762646 1.0711645-.7 1.228l-7.052 2.019c-.3404739.0995905-.6052487.3681478-.7.71l-1.826 6.808c-.1424435.531445-.6837202.8514115-1.218.72l-7.1-1.765c-.3454211-.0904125-.7128421.010209-.964.264l-4.963 4.958c-.3986159.3962403-1.0423841.3962403-1.441 0l-4.962-4.961c-.2509522-.2534351-.6178896-.3540285-.963-.264l-7.1 1.765c-.5339503.1307895-1.0745525-.189041-1.217-.72l-1.827-6.808c-.0947513-.3418522-.3595261-.6104095-.7-.71l-7.034-2.016c-.53069687-.1542437-.84139544-.7037364-.7-1.238l1.823-6.798c.0892834-.343466-.0065571-.7086448-.253-.964l-5.091-5.286c-.37486459-.3913862-.37486459-1.0086138 0-1.4l5.094-5.286c.24537482-.2559537.34005907-.6210562.25-.964l-1.826-6.8c-.14139544-.5342636.16930313-1.0837563.7-1.238l7.034-2.012c.3404739-.0995905.6052487-.3681478.7-.71l1.827-6.808c.1424475-.53095902.6830497-.85078945 1.217-.72l7.1 1.765c.3451104.09002849.7120478-.01056494.963-.264l4.965-4.963c.3986159-.39624026 1.0423841-.39624026 1.441 0l4.961 4.961c.2511579.25379102.6185789.35441255.964.264l7.112-1.765c.5306408-.13243855 1.0715946.17592271 1.228.7l2.019 7.051c.0995905.3404739.3681478.6052487.71.7l6.808 1.827c.5313634.1420087.8517187.6827471.721 1.217l-1.766 7.1c-.0904125.3454211.010209.7128421.264.964l4.958 4.961c.3961243.3982737.3961243 1.0417263 0 1.44z" fill="#f29c1f"/><circle id="Oval" cx="30" cy="29" fill="#e57e25" r="23"/><circle id="Oval" cx="30" cy="29" fill="#f0c419" r="21"/><ellipse id="Oval" cx="21.264" cy="19.5" fill="#f3d55b" rx="8.596" ry="6.497" transform="matrix(.746 -.666 .666 .746 -7.585 19.099)"/><path id="Shape" d="m30 47c-6.6467528.0003942-12.7523332-3.6635692-15.879-9.529-.2392599-.4837006-.0515842-1.0699898.4240898-1.3248344.4756741-.2548447 1.0677497-.0863111 1.3379102.3808344 2.7799461 5.2145442 8.2077216 8.472286 14.117 8.473.5522847 0 1 .4477153 1 1s-.4477153 1-1 1z" fill="#ecf0f1"/><path id="Shape" d="m25 20c-.5522847 0-1-.4477153-1-1s-.4477153-1-1-1-1 .4477153-1 1-.4477153 1-1 1-1-.4477153-1-1c0-1.6568542 1.3431458-3 3-3s3 1.3431458 3 3c0 .5522847-.4477153 1-1 1z" fill="#3f5c6c"/><path id="Shape" d="m39 20c-.5522847 0-1-.4477153-1-1s-.4477153-1-1-1-1 .4477153-1 1-.4477153 1-1 1-1-.4477153-1-1c0-1.6568542 1.3431458-3 3-3s3 1.3431458 3 3c0 .5522847-.4477153 1-1 1z" fill="#3f5c6c"/><path id="Shape" d="m33 22v1c.0000702.7955351-.3165773 1.5583676-.88 2.12-.0419225.0452239-.0888965.0854873-.14.12-1.1254846 1.0134303-2.8345154 1.0134303-3.96 0-.6524448-.5606522-1.0254386-1.3797759-1.02-2.24l-.0000587-1z" fill="#802d40"/><circle id="Oval" cx="13" cy="33" fill="#ecf0f1" r="1"/><path id="Shape" d="m32 25c.0032875.0805193-.0034305.1611354-.02.24-1.1254846 1.0134303-2.8345154 1.0134303-3.96 0-.0165695-.0788646-.0232875-.1594807-.02-.24 0-1.1045695.8954305-1.9999999 2-1.9999999s2 .8954304 2 1.9999999z" fill="#ff5364"/><g fill="#fb7b76"><ellipse id="Oval" cx="22.5" cy="22" rx="2.5" ry="1"/><ellipse id="Oval" cx="37.5" cy="22" rx="2.5" ry="1"/></g></g></g></svg>