<svg height="512" viewBox="0 0 55 58" width="512" xmlns="http://www.w3.org/2000/svg"><g id="Page-1" fill="none" fill-rule="evenodd"><g id="022---Tornado" fill-rule="nonzero"><path id="Shape" d="m46 24v.02c.09.68.16 1.36.2 2.02.5340836 8.1560073-2.4509765 16.1501438-8.2 21.96v.01c-.1966417.7718905-.4336339 1.5329359-.71 2.28-2.27 6.1-6.29 7.71-6.29 7.71h-3c-3.98-1.33-5.32-5.29-5.77-7.81v-.01c-.1315905-.7164533-.2084791-1.4418803-.23-2.17v-.01c-8.49-6.17-9.83-16.51-9.99-20.92-.0418848-.6892752-.0452234-1.3803523-.01-2.07v-.01c-3-2-2-7-2-7-2.95467902-2.430707-4.46324547-6.2021232-4-10l43-4c1 7-1 11-1 11v.01c.3015403.6029682.4848404 1.2580963.54 1.93.3 3.51-2.54 7.06-2.54 7.06z" fill="#bdc3c7"/><path id="Shape" d="m23.2 55.55c-1.7597555.0270417-3.5084624-.282512-5.152-.912-1.965-.814-3.048-2.106-3.048-3.638-.0234737-.8026156.2850527-1.5793921.8528303-2.1471697s1.3445541-.876304 2.1471697-.8528303c.5522847-.0027614 1.0022385.4427153 1.0049999.995.0027615.5522847-.4427152 1.0022385-.9949999 1.005-.2739117-.0288437-.5463007.0668224-.742023.2606068-.1957222.1937844-.2940938.4652081-.267977.7393932 0 .9 1.136 1.51 1.813 1.79 3.2 1.325 9.031.951 11.48-1.5.3923789-.3789722 1.0160848-.3735524 1.4018186.0121814s.3911536 1.0094397.0121814 1.4018186c-1.936 1.939-5.302 2.845-8.507 2.846z" fill="#ecf0f1"/><path id="Shape" d="m17.83 19.6c-8.144 0-13.756-2.542-15.43-3.8-.615-.461-2.485-1.864-2.136-3.594.321-1.589 2.272-2.121 2.493-2.176.53380995-.13110516 1.07336287.1932125 1.20803604.7261335.13467316.532921-.1860279 1.0746313-.71803604 1.2128665-.426.111-.981.425-1.022.634-.027.137.167.691 1.375 1.6 2.534 1.9 16.716 7.5 34.934-2.085.488772-.2573647 1.0936353-.069772 1.351.419.2573646.488772.069772 1.0936353-.419 1.351-6.6361653 3.6451953-14.0653319 5.6065283-21.636 5.712z" fill="#ecf0f1"/><path id="Shape" d="m28 24c-.5522847.011598-1.009402-.4267153-1.021-.979-.0115979-.5522847.4267153-1.009402.979-1.021 23.236-.967 25.042-5.6 25.042-7 .0258407-.2744776-.0729079-.5460566-.2690103-.7398336-.1961023-.193777-.4688399-.2892792-.7429897-.2601664-.5485429-.0136215-.9849872-.4643025-.981-1.013.0038438-.5458457.447141-.9864644.993-.987.8026156-.0234737 1.5793921.2850527 2.1471697.8528303s.876304 1.3445541.8528303 2.1471697c0 3.593-4.677 8.071-26.958 9z" fill="#ecf0f1"/><g fill="#a5a5a4"><path id="Shape" d="m29 50.06c0 .5522847-.4477153 1-1 1-1.9528153-.0398215-3.8922621-.3322511-5.77-.87v-.01c-.1315905-.7164533-.2084791-1.4418803-.23-2.17l.32.11c1.8411795.5726984 3.7524821.8890056 5.68.94.2652165 0 .5195704.1053568.7071068.2928932s.2928932.4418903.2928932.7071068z"/><path id="Shape" d="m38 48.01c-.1966417.7718905-.4336339 1.5329359-.71 2.28-.7551988.1406513-1.5218157.2109524-2.29.21-.5522847 0-1-.4477153-1-1s.4477153-1 1-1c1.0212201.0168876 2.0372251-.1490599 3-.49z"/><path id="Shape" d="m22 26.96c0 .5522847-.4477153 1-1 1-3.0205869.054621-6.0373407-.2406786-8.99-.88-.0418848-.6892752-.0452234-1.3803523-.01-2.07 2.9432193.7222982 5.9708396 1.0418804 9 .95.5522847 0 1 .4477153 1 1z"/><path id="Shape" d="m46.2 26.04c-1.3722939.3467806-2.7848494.5082155-4.2.48-.5522847 0-1-.4477153-1-1s.4477153-1 1-1c1.3510914.039586 2.7002249-.1290557 4-.5.09.68.16 1.36.2 2.02z"/><path id="Shape" d="m48.54 16.94c-1.7343439.651073-3.5253524 1.1398342-5.35 1.46-.0627161.0116027-.1262426.0182897-.19.02-.5118932-.0045081-.9377227-.3948682-.986621-.9044404-.0488984-.5095723.2949264-.973788.796621-1.0755596 1.7725306-.3061121 3.5108255-.7850642 5.19-1.43.3015403.6029682.4848404 1.2580963.54 1.93z"/></g><path id="Shape" d="m27.85 31.657c.1012388.2676961.1520941.5518076.15.838-.0007969 1.3333329-1.0478265 2.4313993-2.3796129 2.4956055-1.3317863.0642062-2.4795914-.9280459-2.6086481-2.2551185s.8060581-2.5218868 2.125261-2.715487z" fill="#35495e"/><path id="Shape" d="m40.862 30.02c1.3194287.1930884 2.2550608 1.3877582 2.1263215 2.7150115s-1.2765281 2.319838-2.6084696 2.255752c-1.3319415-.0640859-2.3791331-1.1622814-2.3798519-2.4957635-.0021782-.2858743.0486818-.5696734.15-.837z" fill="#35495e"/><path id="Shape" d="m32 36h2c1.1045695 0 2 .8954305 2 2v2h-6v-2c0-1.1045695.8954305-2 2-2z" fill="#802d40"/><path id="Shape" d="m34 0c-13 0-23 1-28 8 0 0 18 7 43-4 0 0-3-4-15-4z" fill="#95a5a5"/><path id="Shape" d="m23.262 7.51c-2.1656437.02043778-4.3286281-.15696577-6.462-.53-.5412391-.11045695-.8904569-.63876095-.78-1.18s.6387609-.89045695 1.18-.78c6.5358239 1.0327645 13.227565.36145488 19.428-1.949.3318997-.13290281.7094905-.07864366.9905376.14233854s.4228527.57511501.372.92900001-.2866379.65375865-.6185376.78666145c-4.4990539 1.74042689-9.2861695 2.61608566-14.11 2.581z" fill="#7f8c8d"/><path id="Shape" d="m29 33c-.1811634.000064-.3588994-.049384-.514-.143l-5-3c-.3132279-.1806127-.5045637-.516242-.5004101-.8777878.0041537-.3615459.2031497-.6926908.5204443-.8660598.3172946-.1733689.7034632-.1619565 1.0099658.0298476l5 3c.3851623.2315989.5685031.6916998.4481796 1.1247244-.1203235.4330245-.5147489.732583-.9641796.7322756z" fill="#2c3e50"/><path id="Shape" d="m33 38c1.1045695 0 2 .8954305 2 2h-4c0-1.1045695.8954305-2 2-2z" fill="#ff5364"/><circle id="Oval" cx="25" cy="32" fill="#ecf0f1" r="1"/><circle id="Oval" cx="40" cy="32" fill="#ecf0f1" r="1"/><path id="Shape" d="m37 33c-.4494307.0003074-.8438561-.2992511-.9641796-.7322756-.1203235-.4330246.0630173-.8931255.4481796-1.1247244l5-3c.472347-.2723636 1.075816-.1161362 1.3566637.3512161.2808476.4673523.1355416 1.0735437-.3266637 1.3627839l-5 3c-.1551006.093616-.3328366.143064-.514.143z" fill="#2c3e50"/></g></g></svg>